# xmcd
#
# Track frame offsets:
#	183
#	11815
#	22775
#	33765
#	46453
#	62820
#	78535
#	95668
#	113553
#	124028
#	134288
#	147290
#	162260
#	176123
#	189355
#	212053
#
# Disc length: 3020 seconds
#
# Revision: 1
# Processed by: cddbd v1.5.2PL0 Copyright (c) Steve Scherf et al.
# Submitted via: audiograbber 1.83.01
#
DISCID=d60bca10
DTITLE=Frans Doolaard - From Hawaii to Nashville
DYEAR=1900
DGENRE=Country
TTITLE0=BOUQUET OF ROSES
TTITLE1=HAPPINESS
TTITLE2=IF I COULD ONLY YOUR LOVE
TTITLE3=WHEN TWO WORLDS COLLIDE
TTITLE4=WE ARE ALL ALONE
TTITLE5=THE GREAT PRETENDER
TTITLE6=SING ME BACK HOME
TTITLE7=THIS MELODY
TTITLE8=TOO MANY MEMORIES ALL AROUND
TTITLE9=SONG SUNG BLUE
TTITLE10=ANYMORE
TTITLE11=HUDSON BAY
TTITLE12=STREETS OF LAREDO
TTITLE13=I CALL YOUR NAME
TTITLE14=HE THINKS I STILL CARE
TTITLE15=MY LOVE SONG
EXTD=
EXTT0=
EXTT1=
EXTT2=
EXTT3=
EXTT4=
EXTT5=
EXTT6=
EXTT7=
EXTT8=
EXTT9=
EXTT10=
EXTT11=
EXTT12=
EXTT13=
EXTT14=
EXTT15=
PLAYORDER=
